<?xml version="1.0" encoding="UTF-8" standalone="no"?>
<!DOCTYPE svg PUBLIC "-//W3C//DTD SVG 1.1//EN" "http://www.w3.org/Graphics/SVG/1.1/DTD/svg11.dtd">
<svg xmlns:dc="http://purl.org/dc/elements/1.1/" xmlns:xl="http://www.w3.org/1999/xlink" version="1.1" xmlns="http://www.w3.org/2000/svg" viewBox="-3e-4 -3e-4 1621.449 576" width="1621.449" height="576">
  <defs/>
  <metadata> Produced by OmniGraffle 7.9.3 
    <dc:date>2018-12-11 08:33:46 +0000</dc:date>
  </metadata>
  <g id="Canvas_1" stroke-dasharray="none" stroke="none" fill="none" fill-opacity="1" stroke-opacity="1">
    <title>Canvas 1</title>
    <g id="Canvas_1: Layer 1">
      <title>Layer 1</title>
      <g id="Graphic_2">
        <path d="M 1156.8447 326.2607 L 1215.8227 326.2607 L 1232.9307 268.1837 L 1173.9527 268.1837 L 1195.1137 196.1497 L 1255.4417 196.1497 L 1272.9987 137.1727 L 1144.2397 137.1727 L 1047.8937 464.4757 L 1174.4037 464.4757 L 1196.9137 402.3467 L 1134.3337 402.3467 Z M 1005.5767 268.1837 L 988.4687 326.2607 L 1002.4247 326.2607 L 977.6637 409.9997 L 954.7027 409.9997 C 945.6987 409.9997 941.6467 406.3987 944.3477 396.9447 L 1000.6237 206.0547 C 1002.8747 197.9507 1006.4777 196.1497 1013.6807 196.1497 L 1079.8617 196.1497 L 1097.4197 137.1727 L 988.9187 137.1727 C 967.3087 137.1727 952.4517 143.4757 945.2477 167.7867 L 875.9157 403.6977 C 863.3107 446.9167 888.9717 464.4757 919.5867 464.4757 L 961.4557 464.4757 L 954.2527 490.1377 L 1029.8877 451.8697 L 1083.9127 268.1837 Z M 1544.4637 196.1497 L 1603.8917 196.1497 L 1621.4487 137.1727 L 1516.5507 137.1727 C 1500.3427 137.1727 1484.1357 141.6747 1476.4817 164.6357 L 1439.1147 291.5947 C 1432.3617 315.4557 1439.1147 331.2127 1467.4777 331.2127 L 1503.4937 331.2127 C 1507.5467 331.2127 1507.5467 333.0137 1506.6457 335.7157 L 1490.8887 391.0907 C 1488.1877 399.1957 1486.3867 402.3467 1473.7807 402.3467 L 1417.0537 402.3467 L 1398.5957 464.4757 L 1509.7977 464.4757 C 1523.7537 464.4757 1538.6117 457.7227 1542.2127 444.6657 L 1579.5797 317.7067 C 1589.0337 285.7417 1573.7277 272.2357 1549.4157 272.2357 L 1512.9487 272.2357 L 1532.3077 205.6047 C 1534.5587 198.4017 1539.5117 196.1497 1544.4637 196.1497 M 866.0157 137.1727 L 828.6487 263.6817 L 826.3977 137.1727 L 768.3207 137.1727 L 671.9747 464.4757 L 735.9057 464.4757 L 775.0737 333.9137 L 780.9257 464.4757 L 835.4017 464.4757 L 931.7457 137.1727 Z M 1377.8937 203.3537 L 1359.8847 264.1317 C 1356.7337 274.0367 1350.8807 276.7377 1344.1267 276.7377 L 1320.7167 276.7377 L 1346.3787 189.8467 L 1367.5377 189.8467 C 1377.8937 189.8467 1380.5947 194.7997 1377.8937 203.3537 M 1388.6987 309.1537 C 1405.3567 309.1537 1414.8107 299.2477 1417.5117 289.7937 L 1450.3767 178.5917 C 1456.6797 156.9817 1447.2257 137.1727 1417.9617 137.1727 L 1294.1547 137.1727 L 1197.8087 464.4757 L 1265.7907 464.4757 L 1306.7597 324.9097 L 1329.2707 324.9097 C 1337.3737 324.9097 1338.2747 330.7627 1336.4737 336.1657 L 1298.6567 464.4757 L 1366.6377 464.4757 L 1401.7537 345.1697 C 1408.9577 321.7587 1399.0527 310.9537 1388.6987 309.1537 M 362.3147 464.4757 L 362.3147 402.6427 L 290.1357 464.4757 Z M 66.6987 425.9077 C 49.3667 395.2777 39.4607 359.7977 39.4607 321.9777 C 39.4607 216.6367 116.3237 129.4627 216.4177 114.6717 L 236.7157 72.7557 C 105.1057 78.0187 -3e-4 187.5767 -3e-4 321.9777 C -3e-4 375.9197 16.9307 425.8637 45.7087 466.6697 Z M 290.2187 407.4427 L 290.2187 441.2607 L 373.4217 377.3817 L 292.9037 301.6887 L 292.9037 334.4337 L 207.0137 334.4337 L 292.9037 130.4497 L 292.9037 280.7527 L 362.4497 346.5357 L 364.1777 -3e-4 L 288.0727 -3e-4 L 10.0147 574.1917 L 102.3447 575.9997 L 176.9527 407.4427 Z M 246.6237 531.5107 C 211.2707 531.5107 177.9867 522.5547 148.8677 506.7627 L 131.5127 542.6387 C 165.8767 561.0167 205.0487 571.4217 246.6237 571.4217 C 325.2067 571.4217 395.1867 534.2317 440.3477 476.3197 L 386.6977 476.3197 C 349.8177 510.5797 300.6447 531.5107 246.6237 531.5107 M 631.0107 326.2607 L 689.9887 326.2607 L 707.0967 268.1837 L 648.1187 268.1837 L 669.2797 196.1497 L 729.6077 196.1497 L 747.1647 137.1727 L 618.4057 137.1727 L 522.0597 464.4757 L 648.5697 464.4757 L 671.0797 402.3467 L 608.4997 402.3467 Z M 531.9717 137.1727 L 469.8427 291.1447 L 495.9547 137.1727 L 427.9737 137.1727 L 384.7527 464.4757 L 458.1377 464.4757 L 601.7547 137.1727 Z" fill="white"/>
      </g>
    </g>
  </g>
</svg>
