<?xml version="1.0" encoding="UTF-8" standalone="no"?>
<!DOCTYPE svg PUBLIC "-//W3C//DTD SVG 1.1//EN" "http://www.w3.org/Graphics/SVG/1.1/DTD/svg11.dtd">
<svg xmlns:xl="http://www.w3.org/1999/xlink" xmlns:dc="http://purl.org/dc/elements/1.1/" xmlns="http://www.w3.org/2000/svg" version="1.1" viewBox="301.2342 194.968 190.764 222.768" width="190.764" height="222.768">
  <defs/>
  <metadata> Produced by OmniGraffle 7.9.3 
    <dc:date>2018-12-12 08:19:09 +0000</dc:date>
  </metadata>
  <g id="Canvas_1" stroke="none" fill-opacity="1" stroke-opacity="1" stroke-dasharray="none" fill="none">
    <title>Canvas 1</title>
    <g id="Canvas_1: Layer 1">
      <title>Layer 1</title>
      <g id="Graphic_2">
        <path d="M 392.4902 238.562 C 350.1582 240.734 316.4952 276.139 316.4952 319.493 C 316.4952 334.12 320.3272 347.842 327.0302 359.688 L 318.9122 375.453 C 307.7822 359.671 301.2342 340.355 301.2342 319.493 C 301.2342 266.215 343.9382 223.02 396.6162 223.02 C 397.3692 223.02 398.1202 223.029 398.8682 223.047 L 412.6462 194.968 L 442.0802 194.968 L 442.0802 234.665 C 471.8132 251.001 491.9982 282.864 491.9982 319.493 C 491.9982 372.772 449.2942 415.966 396.6162 415.966 C 380.5372 415.966 365.3872 411.941 352.0972 404.834 L 358.8092 390.959 C 370.0712 397.066 382.9432 400.53 396.6162 400.53 C 440.8652 400.53 476.7372 364.248 476.7372 319.493 C 476.7372 291.522 462.7242 266.86 441.4122 252.296 L 441.4122 328.991 L 414.5142 303.549 L 414.5142 245.42 L 381.2972 324.311 L 414.5142 324.311 L 414.5142 311.646 L 445.6552 340.921 L 413.4762 365.626 L 413.4762 352.547 L 369.6712 352.547 L 340.8162 417.736 L 305.1072 417.037 Z" fill="#d3d3d3"/>
      </g>
      <g id="Graphic_3">
        <path d="M 413.4443 374.6045 L 441.3593 350.6905 L 441.3593 374.6045 Z" fill="#d3d3d3"/>
      </g>
    </g>
  </g>
</svg>
