<?xml version="1.0" encoding="UTF-8" standalone="no"?>
<!DOCTYPE svg PUBLIC "-//W3C//DTD SVG 1.1//EN" "http://www.w3.org/Graphics/SVG/1.1/DTD/svg11.dtd">
<svg xmlns:dc="http://purl.org/dc/elements/1.1/" xmlns:xl="http://www.w3.org/1999/xlink" version="1.1" xmlns="http://www.w3.org/2000/svg" viewBox="58 44.2635 1005 407.473" width="1005" height="407.473">
  <defs/>
  <metadata> Produced by OmniGraffle 7.9.3 
    <dc:date>2018-12-11 14:24:16 +0000</dc:date>
  </metadata>
  <g id="Canvas_1" stroke-dasharray="none" stroke="none" fill="none" fill-opacity="1" stroke-opacity="1">
    <title>Canvas 1</title>
    <g id="Canvas_1: Layer 1">
      <title>Layer 1</title>
      <g id="Group_2">
        <title>Canvas_1</title>
        <g id="Group_3">
          <title>Canvas_1: Layer 2</title>
          <g id="Group_4">
            <title>Group_3</title>
            <g id="Group_8">
              <title>Graphic_6</title>
              <g id="Graphic_10"/>
              <g id="Graphic_9">
                <rect x="60.5" y="46.7635" width="1e3" height="402.473" stroke="#ed1d24" stroke-linecap="round" stroke-linejoin="round" stroke-width="5"/>
              </g>
            </g>
            <g id="Group_5">
              <title>Group_4</title>
              <g id="Group_6">
                <title>Graphic_5</title>
                <g id="Graphic_7">
                  <path d="M 903.2645 142.0825 L 903.2645 80.4795 L 731.8455 80.4795 L 703.6545 286.2825 L 675.7585 80.4805 L 613.94146 80.4805 L 620.86646 135.3955 C 613.72646 121.3275 588.41746 80.4805 532.72046 80.4805 C 532.35346 80.4565 470.81946 80.4805 470.81946 80.4805 L 470.58246 380.4545 L 425.52546 80.4805 L 344.56646 80.4335 L 297.95446 391.2475 L 297.97846 80.4785 L 220.49546 80.4785 L 192.56246 255.0635 L 165.35446 80.4805 L 87.84646 80.4805 L 87.84646 418.3865 L 148.88246 418.3865 L 148.88246 255.5165 L 176.64646 418.3825 L 209.09546 418.3825 L 236.46946 255.5165 L 236.46946 418.3825 L 354.13646 418.3825 L 361.27646 366.3875 L 408.65046 366.3875 L 415.76646 418.3825 L 531.28746 418.4535 L 531.38146 418.4535 L 531.38146 418.3825 L 531.45346 418.3825 L 531.52546 418.3825 L 531.52546 308.6975 L 545.68746 306.6345 L 575.00646 418.4535 L 575.07846 418.4535 L 634.68846 418.4535 L 634.75846 418.4535 L 634.73446 418.3825 L 634.84046 418.3825 L 634.91246 418.3825 L 596.43746 287.3255 C 615.93546 272.9035 637.95046 236.2785 632.09146 201.2415 L 632.09146 201.2185 C 632.16146 201.6925 668.40746 418.5985 668.40746 418.5985 L 739.4725 418.3825 L 788.0315 112.0985 L 788.0315 418.3835 L 903.2675 418.3835 L 903.2675 357.6105 L 848.5675 357.6105 L 848.5675 280.1145 L 903.2675 280.1145 L 903.2675 218.4165 L 848.5675 218.4165 L 848.5675 142.0825 Z M 368.46646 312.8035 L 385.22446 168.3425 L 402.62446 312.8035 Z M 545.88546 246.0995 C 541.18846 248.3775 536.29046 249.5165 531.52246 249.5165 L 531.52246 140.8255 C 531.60546 140.8255 531.70146 140.8035 531.81946 140.8035 C 536.59946 140.7795 572.23846 142.2495 572.23846 194.5775 C 572.23846 221.9505 560.11746 239.1975 545.88546 246.0995 Z M 1026.2455 357.5635 L 1026.2455 418.3355 L 913.8315 418.3355 L 913.8315 80.4335 L 974.3575 80.4335 L 974.3575 357.5635 Z" fill="#ed1d24"/>
                </g>
              </g>
            </g>
          </g>
        </g>
      </g>
    </g>
  </g>
</svg>
